# xmcd
#
# Track frame offsets: 
#        150
#        22470
#        46612
#        73982
#        93340
#        110152
#        122302
#        147312
#        163467
#        182655
#        200707
#
# Disc length: 3244 seconds
#
# Revision: 9
# Processed by: cddbd v1.5.2PL0 Copyright (c) Steve Scherf et al.
# Submitted via: ExactAudioCopyFreeDBPlugin 1.0
#
DISCID=a80caa0b
DTITLE=Various Artist - Depression Blues^ Blues Ballads for a Rainy Day
DYEAR=1998
DGENRE=Blues
TTITLE0=T-Bone Walker - I Woke Up This Morning
TTITLE1=Buddy Guy - D. J. Play My Blues
TTITLE2=Muddy Waters - County Jail
TTITLE3=George Freeman - Confirmed Truth
TTITLE4=Junior Parker - Darlin' Depend on Me
TTITLE5=John Lee Hooker - I'm a Stranger
TTITLE6=Jimmy McGriff - Blues for a Broken Down Funky Old Bus
TTITLE7=Charles Brown - Driftin' Blues
TTITLE8=J. Allen Blues Review - 500 Blue Balls
TTITLE9=Lightnin' Hopkins - Bring Me My Shotgun
TTITLE10=Illinois Jaquet - Blues for New Orleans
EXTD=LABEL =Delta Music Inc.\nID =17184\nUPC =018111-718424\nCOPYRI
EXTD=GHT =1998
EXTT0=
EXTT1=
EXTT2=
EXTT3=
EXTT4=
EXTT5=
EXTT6=
EXTT7=
EXTT8=
EXTT9=
EXTT10=
PLAYORDER=
